:FULLY-SPECIFIED
:FORCE-ALL-JOINTS-BE-3DOF
:DEGREES
1223
root -0.843235 14.711 -17.003 370.237 23.0601 364.494
lfemur 14.2556 1.04495 -8.46572
ltibia 30.1954 0 0
lfoot -0.947098 26.7411 0
ltoes -28.5675 0 0
rfemur -60.5767 -16.8723 18.1691
rtibia 77.8347 0 0
rfoot -17.5654 -20.4146 0
rtoes 5.08926 0 0
lowerback 15.8365 1.09614 -5.36852
upperback -2.9866 0.24628 -0.676809
thorax -12.2699 0.479199 2.24968
lowerneck -0.92076 -9.91709 -10.9701
upperneck 0.454658 -13.3146 11.404
head 1.80664 -6.61236 4.74579
lclavicle 6.07333e-15 3.3669e-15 0
lhumerus -65.4646 -25.6767 111.106
lradius 96.6075 0 0
lwrist 39.8623 0 0
lhand -16.1923 28.2163 0
lfingers 7.12502 0 0
lthumb 10.0086 57.8077 0
rclavicle 6.07333e-15 3.3669e-15 0
rhumerus 64.8206 -0.896454 -27.2784
rradius 92.0514 0 0
rwrist -2.02905 0 0
rhand -33.8589 -33.8207 0
rfingers 7.12502 0 0
rthumb -7.0431 -63.6735 0
1224
root -0.86578 14.7418 -16.8267 370.463 21.8125 363.833
lfemur 12.795 0.744214 -8.31164
ltibia 33.6381 0 0
lfoot 2.25812 25.0894 0
ltoes -28.0706 0 0
rfemur -59.7157 -15.5725 19.2411
rtibia 77.4181 0 0
rfoot -18.035 -20.7364 0
rtoes 3.71701 0 0
lowerback 15.1597 1.12134 -4.99969
upperback -3.14767 0.39952 -0.582545
thorax -12.058 0.52688 2.1083
lowerneck -0.995829 -9.64479 -10.7517
upperneck 0.459067 -12.9412 11.2897
head 1.75783 -6.42462 4.69889
lclavicle 5.99913e-15 6.59033e-15 0
lhumerus -64.1691 -26.6717 112.169
lradius 95.2194 0 0
lwrist 35.3356 0 0
lhand -18.1066 27.5585 0
lfingers 7.12502 0 0
lthumb 8.16158 57.2235 0
rclavicle 5.99913e-15 6.59033e-15 0
rhumerus 64.6511 0.218142 -27.1653
rradius 92.3619 0 0
rwrist -3.94102 0 0
rhand -33.3897 -33.9103 0
rfingers 7.12502 0 0
rthumb -6.59015 -63.777 0
1225
root -0.888326 14.7725 -16.6504 370.786 20.24 363.027
lfemur 11.0645 0.353323 -8.13552
ltibia 37.7396 0 0
lfoot 6.26876 23.0556 0
ltoes -27.4577 0 0
rfemur -58.7097 -13.9771 20.6016
rtibia 76.9701 0 0
rfoot -18.6387 -21.2689 0
rtoes 2.16556 0 0
lowerback 14.3334 1.13773 -4.52668
upperback -3.35447 0.571502 -0.467862
thorax -11.8084 0.577034 1.92653
lowerneck -1.09467 -9.2954 -10.4742
upperneck 0.454048 -12.4608 11.1431
head 1.69202 -6.18305 4.63983
lclavicle 7.12961e-15 1.06115e-14 0
lhumerus -62.5557 -27.9334 113.508
lradius 93.4782 0 0
lwrist 29.6512 0 0
lhand -20.4309 26.681 0
lfingers 7.12502 0 0
lthumb 5.9189 56.4342 0
rclavicle 7.12961e-15 1.06115e-14 0
rhumerus 64.4607 1.62797 -27.02
rradius 92.7426 0 0
rwrist -6.34096 0 0
rhand -32.7989 -34.0417 0
rfingers 7.12502 0 0
rthumb -6.01979 -63.9261 0
1226
root -0.910872 14.8033 -16.4741 371.221 18.3034 362.059
lfemur 9.03992 -0.139517 -7.93607
ltibia 42.5611 0 0
lfoot 11.1797 20.5972 0
ltoes -26.7158 0 0
rfemur -57.547 -12.0538 22.2858
rtibia 76.493 0 0
rfoot -19.3937 -22.0473 0
rtoes 0.427061 0 0
lowerback 13.3414 1.14306 -3.93632
upperback -3.61281 0.762851 -0.330617
thorax -11.518 0.629191 1.69923
lowerneck -1.22047 -8.85914 -10.1305
upperneck 0.437645 -11.8596 10.96
head 1.60684 -5.88078 4.56714
lclavicle 9.70477e-15 1.55233e-14 0
lhumerus -60.5873 -29.4943 115.155
lradius 91.3419 0 0
lwrist 22.6712 0 0
lhand -23.2079 25.5533 0
lfingers 7.12502 0 0
lthumb 3.23941 55.4109 0
rclavicle 9.70477e-15 1.55233e-14 0
rhumerus 64.2486 3.36904 -26.8381
rradius 93.2011 0 0
rwrist -9.28698 0 0
rhand -32.0718 -34.2214 0
rfingers 7.12502 0 0
rthumb -5.31788 -64.1277 0
